<svg xmlns="http://www.w3.org/2000/svg" viewBox="0 0 1694.35 3217.45"><defs><style>.cls-1{stroke:#000;stroke-miterlimit:10;stroke-width:1.65px;}</style></defs><title>kid-left</title><g id="Layer_2" data-name="Layer 2"><g id="Layer_1-2" data-name="Layer 1"><g id="kids"><path id="kid-left" class="cls-1" d="M1688.55,565.5c-6.68-4.82-10.62,1.2-13.88,5.12-7.78,9.36-14.53,19.58-22.22,29-2.88,3.54-6.17,10.9-11.42,7s.34-9.29,3.3-13.11c11.54-14.89,23.33-29.6,35.11-44.28,4.5-5.63,8.57-11.39,10.26-18.58,1.85-7.9,2.63-16-6.43-19.58s-18.23-1.28-22.23,7.79c-8.23,18.63-23.31,32-34.83,48-5.45,7.57-11.8,15.19-23,18.32,1-22.75,16.88-37,26.49-54.12,8.67-15.48,18.14-30.52,27.15-45.81,3-5,5.09-10.26.05-15.35-5.3-5.34-11.18-6.07-18.14-2.94-5.87,2.64-10,6.94-13.78,11.77-17.08,21.52-34,43.17-47.31,67.35a27.24,27.24,0,0,1-2.27,4c-4,4.91-7.65,14.69-14,11.19-6.83-3.77.13-11.83,2.25-17.59,7.41-20.13,17.53-38.91,29.42-56.79a42.57,42.57,0,0,0,6.1-13.81c1.72-7.68-1.06-14-8.45-17.77-7.64-3.93-12.59.09-17,5.65-16.45,20.82-32.06,42.55-41.21,67.4-8.12,22-23.88,38.91-34.6,59-1.56,2.93-4.28,6.78-8.12,6-5.27-1-6.21-6.62-7-10.76-3-16.69-14-23.63-29.36-26.46-10.24-1.89-13.38,2-10.64,11.61,25.43,89.12,22.66,175.12-21.07,259.47-35.84,69.14-73,137.88-99.29,213.86-5.34,11.17-10.38,22.62-15,34.49-5.42,14-16.28,22-29.37,27.18-16.13,3.92-30.24,7.36-42.63,10.4-6.51,1.27-12.82,2.61-18.64,4.33-1.94.58-3.89,1.14-5.84,1.71-46.63,11.59-61.52,15.87-76.3,20.87-9.1,3.07-18.14,6.71-27.32,9.52a74.49,74.49,0,0,1-17.41,2.84l-160.81-85.19s-.85-106.69,19.29-113.13c23.35-7.47,85.25-8.79,157.81-55.6,43.48-28,61.54-57.9,63.73-82.57,2.4-27.17,21.21-148.7,8.25-189.9-7.79-24.76-72.3-43.58-86.69-79.93-24.39-54.56-27.12-104.12-36.91-116.94-13.41-17.56-45.34-51.87-57.52-69.73-23.65-34.67,22.3-55.94,34.2-88.28,8.15-22.13,3.79-46.74-5-68.43-7.46-18.39-14.1-32.63-31.29-22.5-16.29,9.59-12.12,37.42-41.87,33.16-22.2-3.18-16.65-11.82-16.07-25.71,1-23.79,8.6-44.4,5.18-69.81-3.81-28.29-17.46-100.72-61.66-92.68-20.74,3.77-12.93,10.88-7,24.71,8.85,20.75,12.33,26,.69,48.26-19.65,37.55-62.67,33.13-88,2.75-12-14.38-22.37-39.52-21.24-58.77C766.26,20.82,784.34,8.68,756.85,2c-40.09-9.69-66.6,41.87-105.47,45.35-46.29,4.15-79.51-32.14-124.85-32.46-18.39-.13-47.92,1.11-63.79,13.4-22.47,17.39-4.52,13,7.72,22.45,19.49,15,19.83,34-6.4,44.66-7.3,3-17.52,2.13-25.4,2.36-11.81.36-38.27-9.75-47.06-7.54-19.59,4.91-3.41,13.28-5.72,31-2.33,17.93-16.76,27.85-31.31,36.37C317.4,179.39,184.5,184.26,165.42,227.8c-12.53,28.58-2.37,15.64,15.65,17.64A178,178,0,0,0,82,357.22c-9.86-6.29-19.46-10.8-25.07-6.33-12,9.58,11,30.71,18.22,42.83-.38,4.77-.59,9.6-.59,14.47V409c-5.73,4.13-19.14.64-33,1.86-15,1.31-50.51-2.49-37.12,19.24,7,11.29,54.13,30.68,67,36.1C60.78,486,5.75,481.51,1,499.49c-3.57,13.49,53.54,28.6,65,34-11,7.88-58,18.06-53.11,35.82,3.33,12,46.25,4.78,53.35,15.79,2.38,3.68-12,14.14-12.82,18.24-2.9,14.39,10.17,19,16.37,32.49,12.58,27.34,12.51,63,23.52,92,21.48,56.51,52.45,114.75,88.5,163.37,73.87,99.59,197,189.33,323.12,200.22,27.21,2.35,125-22,116.86,36.51-.52,3.68-.07,12.13.85,22.48-1.22,3.69-2.36,7.76-3.71,12.34-1,3.24-1.86,6.48-2.78,9.72C572.33,1203.58,444,1315.9,430.79,1331.31c-8.73,10.18-15.94,34.37-25.3,50.72s-23.95,30-31.28,47.24c-18.57,43.57-31.32,89.55-41.76,136.47q-32.31,145.13-63.39,290.5c-4,18.49-10.25,33.5-28.3,43-33,17.48-52.39,49.18-75.25,77-16.19,19.69-37,32.4-59.51,42.65-9,4.09-18.89,6.22-27.55,11.36-5.6,3.33-11.11,7.21-9,14.61,2.38,8.19,10,9.18,16.84,8.36,7.35-.89,14.61-3.13,21.71-5.41,19.46-6.24,38.81-12.8,59.09-18.38-20,17.81-33.41,41.74-55.58,57.62-7.58,5.44-14.16,12.27-21.21,18.44C84,2111.06,76.59,2118,81.85,2126c5.09,7.83,14.85,4.15,22.21,1,16.78-7.14,31.4-17.79,45.25-29.58,9.9-8.43,20-16.61,30.06-24.9-6,31.55-29.48,47.73-49.77,66.67-8.29,7.73-26.15,13.35-15.45,28.6,10,14.33,23.91,4.21,35.15-2,15-8.2,26-21.25,38.35-32.77,5.73-5.37,9.79-13.08,20.55-15.6-2.47,11.73-9.83,19.35-15.2,27.85-4.34,6.84-10.17,12.84-13.84,20-4.93,9.56-9.2,20.44,2.29,28.46,11.16,7.79,18.31-1.24,25.66-8,29.87-27.32,48.65-63.13,72.43-95.1,6.58-8.85,10.65-13.16,19-2.4,4.82,6.21,12.06,9.49,20,6.26,7.17-2.9,6.09-10,6.59-16.21,1.59-19.66,15.39-33.84,24-50.07,9.5-17.84,15-35.38,13.16-55.35a63.29,63.29,0,0,1,7.17-36.3c15.36-28.41,21.44-59.73,29.56-90.37a449.56,449.56,0,0,1,41.14-102.07c23.38-42.49,50-84,68.9-128.49-5,24-9.47,48.22-12.64,72.2-5.41,40.88-10.13,86.8-22.52,126.14-13.06,41.45-31.59,82.63-42.27,124.83-9.76,38.62-9.75,77.22-11.7,116.82-2.18,44-13.79,85.81-25.91,128-12,41.69-13.28,84.14-17.75,127-1.32,12.71-13.91,44.05-7.94,55.56,5.63,10.87,31.39,21,42.47,26.21,7.48,3.5,15,9.62,22.12,12.72,4.08,1.79,12.71,2.68,15.05,5.94,4.25,5.94-3.08,21.39-4.4,27.19a289.6,289.6,0,0,0-5.83,40.51s2.27,37.86-5,51.68-18.83,18.24-44.48,49.6-127.8,264.15-145.47,305.54c-5.71,13.36-10.39,28.69-21.38,39.73-10.34,10.37-25.75,15.84-39.88,22.89-9.77,4.88-24.7,12-32.06,18.72-9.77,9-3.61,25.59,0,38.19,9.33,32.52,27.3,61.48,43.28,93.08,6.29,12.44,59.18,54.63,64.4,67.15,7.9,19,82.36,34.72,127.94,49.46,4.41-2.45,23.7,1.22,30,1.52,17.88.85,19.69.11,20.3-13.48.47-10.3,7.86-29.69,1.6-40.35-3.31-5.64-1.61-3.45-6-6.92-1.55-1.22-10.85-4.8-14.55-7-19.67-11.76-38-23.79-49.41-39-3.41-4.57-23.88-56.38-27.82-65.61-3.46-8.1-4.84-15.49-7-22.61-2-6.53-10.35-27.47-13.28-34.77-6-15,204.06-291.16,223.84-315.23s25.24-79.11,45-118.87c8.42-16.93,12.62-48.93,15.6-68.8,1.11-7.43,1.83-34.4,1.83-34.4s5.18,1.49,7.63,1.86c7.12,1.08,21.85,10.48,27.68,9.29,7.21-1.48,9.67-10.18,13.66-16.93,5.84-9.84,18.34-40.64,28.13-36.72,14.23,5.68,12.24,37.49,19.19,48,5.65,8.56,22.61,14.67,31.73,15.85,10.39,1.35,48.58,6.16,48.58,6.16s-39.21,86.36-39.9,106c-4.13,115.64-1.17,324-5.14,367.54-1.28,14.08-1,29.66-7.91,43.16-6.46,12.69-19.07,22.35-30,33.1-7.58,7.44-19.27,18.46-24.07,26.91-6.35,11.2,4.33,24.75,11.43,35.33,18.35,27.3,43.64,48.71,67.88,73.18,9.53,9.62,18.66,19.55,27.23,29.57,13,15.19,139,20.78,185.59,20.78,3.34-3.58,22.29-6,28.23-7.57,16.8-4.56,18.24-5.78,14.75-18.54-2.65-9.67-1.61-29.82-10.59-37.81-4.75-4.22-2.52-2.71-7.64-4.6-1.79-.67-11.47-1.19-15.56-2.13-21.71-5-42.3-10.63-57.36-21.28-4.53-3.19-39-45-45.37-52.37-5.62-6.46-9.1-12.88-13.21-18.83-3.77-5.46-17.79-22.32-22.69-28.2-10.07-12.11,59.31-240.62,72.35-281.36,7.19-22.47,30.83-86.1,43.72-223.8,1.14-12.07-1.69-42.18-1.69-42.18s8.86-7.74,28.13-11.71c17-3.51,32.16-5.47,48.23-12.57s61.34-14.67,68.35-31.66c5.17-12.55-2.85-40.38-3.47-53.32-1-21-1.35-42-2.41-63-3.29-65.06,12.58-129.3,11.41-194.35-.19-10.85-3.5-22.86,3.87-30.2s36.83-8.64,47.85-12.37c8.67-2.94,31.36-7.27,36.45-16.17,6.57-11.48-4.74-35.72-7.15-48.83-10.5-57.15-18.88-113.14-27.31-170.42-4-27-5.39-55-6.83-82.11-1.79-33.44,3.17-62,10.18-94.44,5.88-27.26,13.29-54,19.71-81.21,6.07-25.69,32.7-139.39,53.64-151.18,27.07-15.26,80.85-16.87,80.85-16.87L1304.93,1297c21.28-2.4,36.64-4.66,39.06-6.34,14.66-10.2,28.41-21.7,42.71-32.4,21.38-16,45.24-33.13,60-55.74,17.3-26.59,83.56-259.85,88.55-301,4.11-33.86,8.15-67.71,14.76-101.26,6-30.28,17.78-57.59,38.17-80.44,31.63-35.43,53.81-78.06,87-112.28,6.57-6.77,10.56-16.1,15.44-24.42C1694.3,576.87,1695.35,570.4,1688.55,565.5Z"/></g></g></g></svg>