<svg xmlns="http://www.w3.org/2000/svg" viewBox="0 0 1839.9 3180.16"><defs><style>.cls-1{stroke:#000;stroke-miterlimit:10;stroke-width:1.84px;}</style></defs><title>kid-right</title><g id="Layer_2" data-name="Layer 2"><g id="Layer_1-2" data-name="Layer 1"><g id="kids"><path id="kid-right" class="cls-1" d="M1832.32,536.44c-7.66-33.62,9.59-59.36,6.21-92.93-1.34-13.31-7.4-28.3-12.62-40.35-5.79-13.37-20.66-26.1-25.1-38.71-7.76-22,8.7-49.14,0-74.83-9.35-27.41-27.9-50-53.66-63.27a121.82,121.82,0,0,0-43.93-12.86c-13.27-1.34-43.48,5.09-52.54-9.1-7.94-12.44,8.11-39.4,1.21-58-4.29-11.58-11.85-19.13-20.75-27.33-12.48-11.49-11.74-13.7-19.55-27.55-14.74-26.13-40.76-27-68.83-22.38-6.7,1.1-23.26,9.54-28.71,8.25-6.09-1.45-17.8-23.74-23.74-28.84-20.35-17.46-46.13-28.34-73-24.61-13.32,1.85-26.87,12-39.42,13.08-18.75,1.62-14.65-1.86-32.64-14.65C1322,5.85,1291.53-2.47,1263.26,2.21c-14.92,2.47-28.28,13.32-42.51,14.94-15.19,1.72-29.25-8.2-44.39-10.82-30.49-5.29-47.74,4.6-66.76,27-21,24.73-24.26,4.15-56.29,6.61-28.3,2.17-43.7,21.15-51.49,47.18-2.49,8.32.2,22.91-6.56,29.39-6,5.78-25.11,4.95-33.6,8.95-18.1,8.52-18.83,13.18-39.4,13-16.2-.13-24.29,2.33-40.15,5.57-23.34,4.76-39.84-.29-57.12,23.4-13,17.82-22.7,44.75-24.18,66.55-.84,12.29,3.4,27.84.6,39.8-4,17.2-19.15,26.53-31.21,39.84-43.75,48.32-65.15,105.48-83.53,166.85l-21.1,124.61-78,71c-22.35,18.1-37.08,35.27-50.49,61.15-17.33,33.43-10.41,57.12-3.35,93.08,6.09,31.08,8.68,70.35,21.9,99.23,14.1,30.8-1.91,56.64,24.86,75.31,23.61,16.47,119.27,59,109.44,91.68-5.12,17-31.48,19.48-31.48,19.48s-5.43,2.06-14.59,5.68c2,1.39,4.17,2.78,6.34,4.16-8.73,4.09-17.4,8.3-25.7,12.54-5.76-4.58-11.62-9-17.65-13.19-26.25-18.18-51.18-41.76-78.9-57.33-11.51-6.46-23.67-12.46-35-19.73-14.86-9.5-17.24-17.64-23.63-34.33-13.86-36.18-25.73-71.74-41.56-107.22-30-67.25-85.18-116.71-134.91-206.47l-35.93-64.86a47.23,47.23,0,0,0-7.54-16.08c-17.7-24.62-27.09-50.86-36.58-78.07-7.57-21.7-24.66-36.88-37-55.29-5.49-8.21-13.3-14.53-15.36-25.13-1.23-6.36-5.2-6.4-9.53-1.35-6.45,7.53-7,14.9-1,36.41-9.09-2.3-14.39-7.85-18.74-13.08C115,463.3,92.81,452.18,72.91,437.91c-5.64-4-11-6.85-16.55.14S53,450.39,58.75,455.84c19.78,18.75,39.4,37.67,59.1,56.51,1.58,1.52,3.94,2.49,3.35,7.14-8.73-4.74-17.48-8.4-25-13.78C78,492.64,56.79,484.76,38.33,472.1c-6.92-4.75-15.8-9-21.36.74-5.2,9.15.08,16.33,8.82,21.17,24.72,13.71,45.94,32.91,71.31,45.63,3.7,1.86,5.63,4.91,4,9-2.33,6-6.25,2.12-8.72.51C70.61,535,44.46,532,21.44,521.05c-7-3.32-14.8-4.4-18.94,4.16s.32,15,7.81,19.26C30.65,556,53.18,562.39,74.62,571.34c7.78,3.24,16.26,5.1,22.06,12.54C81.2,575.8,63.89,573.8,47.91,567.59c-2.54-1-5-2.27-7.43-3.48-5.76-2.84-11-2.24-14,3.69-2.85,5.57.43,10,5,12.6,9.53,5.31,19,11.09,29.27,14.62,24.61,8.48,40.18,29.16,60.55,43.31,18,12.49,34.91,26.4,55.58,34.45l.51.22c18,38.42,35.73,77,53.63,115.46,21.48,46.21,50.42,88.63,73.92,134,24,46.33,46.85,92.14,74.73,136.31,13.3,21.07,19.81,42,29.55,64.92,9.88,23.28,25.79,44,41,64.09,19.06,25.19,39.73,48.81,60.65,72.25-29.62,66.65-36.79,134.62-36.79,134.62-6.28,32-12,71-16.21,92.68a1317.84,1317.84,0,0,0-19.68,137.72Q427,1752.45,418.13,1880.44C390.13,2290,265.81,2468.94,269.3,2482c4,14.86,36.49,22,49.37,26.69a531.39,531.39,0,0,0,62.15,18.2c20.91,4.9,41.86,5.79,63.31,8,12.25,1.24,39.9-2.3,46.95,6.47,6.53,8.1,7.93,31.59,10.66,41.67,5.57,20.49,10.29,41.14,15.43,61.74,10.28,41.21,21.86,82.39,31,123.84,9.43,42.71,30.38,87.36,16.63,130.21-21.74,67.73-69.53,128.37-118.4,179.75-25.9,27.24-63,28.52-55.68,75.26,2.78,17.73,5.44,22.45,24.08,24.21,27.08,2.56,57.38-.24,84.67-1.28,25.23-1,52.64-2.16,77.31-7.42,16.57-3.53,29.55-18.72,44.61-29.33,9.75-6.87,75-59.54,99.82-77.72,38.65-29.76,53.29-74.26,53.29-74.26.75-9-2.23-20.27-5.8-30-6.17-12.8-14.3-32.88-16.41-36.4-8-13.42-15.84-27.28-23.53-40.63-24.88-43.22-22.25-96.57-26.72-146-4.36-48.33-5.38-96.7-6.89-145.1-.53-16.94-9.62-60.39,0-74.87,6.52-9.8,42.15-12.53,53.76-15.49,0,45,14.68,91.25,22,135.72,7.22,44.13,15.24,88.12,22,132.33,5.27,34.23,19.21,78.76,11.06,112.79-1.28,5.35-14.35,47.6-22.4,71.71,5.92,12.28,10.14,27.46,9.29,39.62-1.48,21.24-51.17,79.57-90.28,108.74h0c-6.34,7.08-13.43,13.56-18.3,20.86-5.8,8.7-5.76,30.55.32,40.76,8.12,13.63,98,19.2,130.17,16.52,31.72-2.64,35,.41,62-19.81,22.87-17.11,103.74-124.34,124-152.27,19-26.28,42.86-52.28,26.68-75.25-19.43-27.57-39.29-55.27-56.55-84.36-7.09-12-14.34-25.14-18.44-38.47-4.72-15.34,7-230.73,7.4-265.77.18-18.43.17-37.06.63-55.53.41-16.63-2.37-39.58,3.27-55.19,3.71-10.28,1.21-9.84,14.52-15.6,14.88-6.45,30.58-11.18,45.62-17.25,33.53-13.53,65.43-29.76,96.66-47.92,50.2-29.18,98.13-59.14,146.35-91.28,55.2-36.79,107.64-78.72,154.88-125.81,11.93-11.89,96.14-101,89.87-108.65-15.12-18.4-41.55-54.83-56-73.59-25.54-33-46.33-69.93-71.88-102.79-59.33-76.31-110-159.93-155.33-244.9-21.36-40-39.27-81.55-61.42-121.26-14-25.07-28.08-51.22-40-77.44,27.23,18.12,55.15,15.7,87.28,19.84,69.76,9,141.67,10.72,211.93,14.46a709.11,709.11,0,0,0,111.36-2.83l-.37-.5a191.73,191.73,0,0,1,42.3,15c25.42,12.71,49.4,28.45,80.13,26.21,11.63-.85,23.27,2.67,33-7.11,2.13-2.15,6.6-2.36,10.06-2.71,9.32-.94,8.39-5.8,4.06-11.08-6.62-8-15.65-8.34-24.91-6-11.23,2.81-21.93,1.64-32-3.91-3.57-2-8.9-3.39-8.4-8.63.42-4.45,5.28-5.68,8.86-6.84,18.69-6.1,37-13.47,56.77-15.9,13.66-1.68,27.23-4.08,40.85-6.13,4.27-.64,7.62-2.49,8.35-7,.82-5.12-3.19-6.73-6.86-8.17-5.59-2.18-11.52-2.5-17.43-2.26-15.3.62-30.59,1.56-45.89,2-3.88.11-10,2.29-10.73-3.89-.61-4.9,5.1-4.89,8.6-6.3,22.53-9.1,46.32-12.24,70.24-14.62,5.2-.52,11.1,0,11.64-7,.58-7.55-5.06-9.9-11.39-10.84-2.5-.36-6,.91-5.34-3.84,1.78-12-6.44-12.71-14.74-12.53-19.32.4-38-5.6-57.18-5.71-26-.14-52.22-3.75-76.62,10.8-19.66,11.72-40.89,18.56-64.91,17.76-20.35-.69-40.74-1.13-61.13-1.54-49.28-12.85-99.85-22.1-150.18-29.79l-127-28.77c-24.69-10-45.66-22.82-68.07-37-20.67-13.13-33.58-26.47-51.53-43h0c-15.23-58.15-23.22-60.56-4.24-74.61,12.25-9.06,25.36,13.82,45,16.8,13.16,2,21.43-2,33.62-4.25,20.94-3.81,6.7-7.73,26.93,5.06,25.28,16,42.13,23,71.8,26.18,22.86,2.47,34.82,25.48,61,27,13.82.77,23.29-5.21,36-8.54,21.16-5.54,13-2.91,29.5,4.14,30.39,13,50.12,25.36,84.77,21.88,23.64-2.38,46.7-9.36,65.78-24,22.75-17.4,25.31-42,54-45.84,55.24-7.27,105.82-26.13,131.18-80.76,6.65-14.32,6.56-27.93,11.09-42.23,3.8-12,10.62-20.13,16.38-31.24,4.94-9.53,6.92-27.63,14.05-35.6,9.38-10.49,27.45-15.4,38.28-25.23a115.18,115.18,0,0,0,35.89-65.66c5.71-32.77-15.51-59.69-13-90.12,2.45-29.57,19.47-51,12.67-83.27-6.09-28.86-17.62-49.54-8.44-78.82C1828.84,593.9,1840.93,574.17,1832.32,536.44Z"/></g></g></g></svg>