<svg xmlns="http://www.w3.org/2000/svg" viewBox="0 0 4320 1469.31"><defs><style>.cls-1{fill:#047a85;}.cls-2{fill:#ffc751;}</style></defs><title>Banner</title><g id="Layer_2" data-name="Layer 2"><g id="Layer_1-2" data-name="Layer 1"><g id="Banner"><path class="cls-1" d="M1747.17,6.14c62,14,102.6,52.86,106.48,95.68l.35.14V228.74l-.27-.15v69.27c0,4.27,2,8.42,5.78,11.79L1905.35,351c7.37,6.64,22.61,3,22.61-5.39V135.14h121.57v647.1c-83,2.36-112.17,1.45-191.56,7.1-110.91-8.09-197.4-68.5-197.4-148,0-77.93,73.46-122.6,174.51-125.17a85.38,85.38,0,0,1,26,.23,20.78,20.78,0,0,1,2.23.08l-.18.29c25.93,4.84,45.06,21.29,45.06,40.91,0,23.41-27.2,42.39-60.75,42.39-23.47,0-43.8-9.31-53.91-22.91-34.64,10.14-56.41,35-56.41,64.18,0,38.15,37.22,69.08,91.89,69.08,47.59,0,89.44-23.43,98.94-54.66,0-.58.06-145.74.06-145.74L1704.27,313.55V148.38h7.49c9.49-1,18-4.76,23.47-10.43l15.92-16.62c22.86-23.87,10.44-56.6-26.75-68.87q-7.17-2.37-14.94-4.14a174.54,174.54,0,0,0-65.26-2.08c-5.64.89-8,5.75-4.17,8.8,10.76,8.69,15,21,9.52,32.68-8.36,18-36.27,27.84-62.07,21.7-22.63-5.38-36.46-22-32.15-38.38a30.09,30.09,0,0,1,9.29-14.47C1599.57,12.26,1675.65-10,1747.17,6.14Zm522.62,635a15.86,15.86,0,0,0,1.12-5.53v-376c0-7.24-5-13.53-12.33-17.07L2340,179.63l52.47,36.61V694.3l-106.56,85.92q-33.28-.36-66.87-.37h-21l-46.34-37.52,104.35-88.62c6.07-2.23,10.8-6.23,13.15-11.17l1.69-1.43Zm-53.28-390.21v8.62h0v374c0,8.05,5.56,15,13.79,18.91l-92.88,78.32-42.48-34.4V214.16l112.77-78.71h69l48.22,33.66ZM1578.65,520.72c5.76,3.11,9.14,7.92,9.14,13V814.31q-61.86,7-121.57,15.33V549.45l-37.57-18V432.27c41.49-9.68,56.51-32.16,56.51-42.6l1.78-53.63c0-41.13-22.49-106.28-83-111.34V414.42h0V838.84q-62.18,9.57-121.57,20.5l-1.15-724.13h124.92c78.93,0,147.41,52,181.65,128.15V435.19c-16.77,22.51-42.1,41.42-70.55,52.46Zm-766.4,9.43V614.6q-19.46,3.71-38.72,7.49v248l89.85-26.56V965.11c-79.26,27-150.15,56.31-211.42,87.64V135.14l211.42.22V220H773.53V537.45q19.26-3.69,38.72-7.3ZM1018.5,336V487.58q28-5.54,56.51-10.77v63.64l-56.51,15.14V918.28q-63.4,17-121.57,35.76V336h0c15.59-113.85,100.25-200.86,202.37-200.86h122V871.06q-62.61,12.6-121.57,26.67v-669c-60.52,9.14-81.23,66.13-81.23,107.26ZM144.26,169.3a171.45,171.45,0,0,0-24.92,3.42c-7.51,1.59-10.83,10.09-5.77,15.54,14.48,15.57,20.16,37.66,12.88,58.76-11.13,32.29-48.29,49.86-82.64,38.86C13.7,276.23-4.7,246.52,1.05,217.13A58.43,58.43,0,0,1,13.4,191.22c26.43-48,62.83-54.64,108.3-56.16l190,.08V1196.73l-150.2,72.6.26-665.7-.17-62.83-.16-70s73.87-59.9,73.87-162S174.31,167.45,144.26,169.3Zm17.26,1136.37,177.31-84.61s44.28-26.65,77.43-97.48S436.87,907.22,436.87,872V455.81c0-55-27.93-107.11-76-141.75l-22-15.85V137.5a97.51,97.51,0,0,1,38,16.24l115,82.81c60.29,43.42,95.3,108.7,95.3,177.67v656.66s-11,81.78-76.31,162.14c-66.82,82.25-199,124.69-199,124.69H161.52ZM2594.88,674.53h.19c14.23,0,25.77-12.24,25.77-27.34V135.14h121.81V713.56L2646,795.29l-16.3-1.18q-50.35-3.69-101.73-6.54l-84.72-91.75V135.14h123.2V644.36C2566.44,661,2579.18,674.53,2594.88,674.53Zm211.21,135V135.14h121.56V823.71q-59.71-7.74-121.56-14.21ZM2948.28,585.6V212.5l59.44,223V135.14h121.57V854.45q-53.88-9.54-110-18Zm410.11-450.15v-.32h3.51L3480,217.52v271Q3421,479.88,3360.73,472l-5-.63-.71-.1V259.56c0-11.09-11.54-20.09-25.78-20.09h-2.85c-14.23,0-25.77,9-25.77,20.09V681.31h-.27V887.77q-17.26-3.9-34.82-7.7L3178.05,766V213.86l112.81-78.72h.58v.31Zm32.46,491.6c-27-6.22-45.17-23.8-45.17-43.62V553q64.07,8.4,126.38,17.73l7.9,1.82V820.38l-73.31,93.34c-26.51-7-53.75-13.7-81.53-20.21V735l23.91,6.71c25.91,7.26,54.14-6,54.14-25.54V641.82c0-5.6-4.89-12.67-12.32-14.76Zm292.37-105.8v84.24c-12.58-2.34-25.43-4.71-38.72-7.14v255l89.86,32.18v142.24c-62.57-28.49-133.41-55.12-211.43-79.57V135.14h211.43V220H3644.5V514.3Zm-1034.1,948.06c22.44-42,50-118.25,61.17-170.28l100.07-7.08c-23.52,60.5-68.4,139.61-97,173.07ZM3933.92,135.14c96.88,0,181,85.34,223.54,210.65a14.53,14.53,0,0,1,.76,4.62V633.53c-20.71,37.39-52,68.82-87.12,87.16l75.83,55.06a26.79,26.79,0,0,1,11.29,21.6v71.3l.17,62.84.16,70s-73.87,59.9-73.87,162,61,141.35,91.06,139.44a170.06,170.06,0,0,0,24.92-3.41c7.51-1.6,10.83-10.1,5.77-15.54-14.48-15.57-20.16-37.66-12.88-58.76,11.13-32.3,48.29-49.87,82.64-38.87,30.11,9.65,48.51,39.37,42.76,68.76a58.24,58.24,0,0,1-12.35,25.9c-37.27,63.56-58.62,56.45-101.19,55.25l-45.4.07H4009.15l-1-502.74-60.5-39V637c63.37-15.53,83.86-60.79,83.86-79l2.2-136c0-68.33-27.75-129.66-110.77-138.07V641.35h0V862h.34v280.46l-142.17-89.18v-918h152.83ZM2355.57,887.77,2098.65,1357H1965.86l198.67-338.75-156.68,136.09H1875.1l-24.92-135.93L1648,1357H1515.22l260.52-469.18h144.31l42.39,162.78,174.09-162.78Zm181.8,389.07L2492.81,1357h-309l261-469.18h309l-34.74,62.45H2546.33l-57.24,102.89h85.1l-36.72,66L2527,1133.22h-82.51l-79.87,143.62Z"/><path class="cls-2" d="M1754.94,5c60.88,13.33,100.67,50.29,104.47,91l.35.14V216.79l-.27-.14v65.91c0,4.06,2,8,5.68,11.22l45,39.33c7.23,6.32,22.18,2.86,22.18-5.13V127.74h119.3V743.45c-81.41,2.24-110.06,1.38-188,6.75C1754.88,742.51,1670,685,1670,609.35c0-74.14,72.07-116.65,171.22-119.1a88.73,88.73,0,0,1,12.08-.83,87.51,87.51,0,0,1,13.33,1l2.19.07-.18.28c25.44,4.6,44.21,20.26,44.21,38.92,0,22.28-26.69,40.33-59.6,40.33-23,0-43-8.85-52.9-21.79-34,9.65-55.35,33.32-55.35,61.06,0,36.3,36.52,65.73,90.16,65.73,46.7,0,87.75-22.3,97.08-52,0-.55.06-138.66.06-138.66L1712.85,297.45V140.33h7.35c9.31-1,17.71-4.53,23-9.92l15.62-15.81c22.42-22.71,10.24-53.85-26.25-65.53q-7-2.25-14.65-3.93a176.36,176.36,0,0,0-64-2c-5.54.85-7.81,5.47-4.09,8.38,10.55,8.26,14.67,19.94,9.34,31.09-8.2,17.16-35.59,26.49-60.9,20.65-22.21-5.12-35.77-20.91-31.54-36.52A28.47,28.47,0,0,1,1575.84,53C1610.12,10.82,1684.76-10.37,1754.94,5Zm512.79,604.19a14.81,14.81,0,0,0,1.09-5.26V246.12c0-6.89-4.87-12.88-12.1-16.24l79.9-59.81,51.48,34.84V659.76l-104.55,81.75q-32.65-.35-65.62-.36h-20.59l-45.46-35.7,102.38-84.31c6-2.12,10.6-5.93,12.91-10.63l1.65-1.36Zm-52.29-371.27v8.2h0V602c0,7.66,5.46,14.3,13.54,18l-91.14,74.5-41.68-32.73V202.92L2206.81,128h67.71l47.32,32ZM1589.59,494.6c5.66,3,9,7.54,9,12.38V774q-60.71,6.69-119.29,14.59V522l-36.85-17.16V410.45c40.71-9.21,55.44-30.6,55.44-40.53l1.75-51c0-39.13-22.07-101.12-81.44-105.94V393.47h0V797.29q-61,9.09-119.29,19.5l-1.12-689h122.56c77.44,0,144.64,49.46,178.24,121.93V413.21c-16.46,21.41-41.31,39.41-69.23,49.91Zm-752,9v80.34q-19.08,3.52-38,7.13v236l88.16-25.27V917.45C810,943.11,740.42,971,680.31,1000.84V127.74l207.44.21v80.5h-88.1V510.51q18.89-3.51,38-6.93ZM1040,318.85V463.07c18.33-3.51,36.85-6.91,55.45-10.25v60.54L1040,527.76V872.85q-62.22,16.18-119.28,34v-588h0c15.3-108.33,98.36-191.11,198.55-191.11H1239V827.9q-61.44,12-119.29,25.38V216.79C1060.31,225.45,1040,279.72,1040,318.85ZM182.2,160.24a174.8,174.8,0,0,0-24.45,3.21c-7.36,1.52-10.62,9.61-5.66,14.79,14.21,14.81,19.78,35.83,12.65,55.9-10.92,30.74-47.39,47.45-81.09,37-29.55-9.18-47.6-37.45-42-65.41a54.79,54.79,0,0,1,12.12-24.65c25.93-45.67,61.64-52,106.26-53.44l186.45.08V1137.8L199.1,1206.88l.25-633.39-.16-59.78L199,447.1s72.48-57,72.48-154.18S211.65,158.45,182.2,160.24Zm16.94,1081.21,174-80.5s43.44-25.36,76-92.74,20.23-205.87,20.23-239.34v-396c0-52.35-27.41-101.9-74.6-134.87l-21.59-15.08V130a97.23,97.23,0,0,1,37.22,15.47l112.78,78.78c59.16,41.32,93.51,103.43,93.51,169V1018s-10.81,77.81-74.87,154.27c-65.56,78.26-195.3,118.64-195.3,118.64H199.14ZM2586.65,641h.19c14,0,25.29-11.65,25.29-26V127.74h119.56V678.09l-94.85,77.76-16-1.12q-49.41-3.51-99.82-6.23l-83.12-87.3V127.74h120.88V612.25C2558.79,628.1,2571.29,641,2586.65,641Zm207.24,128.42V127.74h119.28V782.88q-58.58-7.35-119.24-13.51ZM2933.4,556.3v-355l58.33,212.17V127.74h119.32V812.17q-52.87-9.09-108-17.1ZM3335.79,128v-.3h3.44l115.84,78.39V464q-57.81-8.22-117-15.74l-4.86-.6-.7-.1V246.12c0-10.56-11.32-19.12-25.29-19.12h-2.8c-14,0-25.28,8.56-25.28,19.12V647.45h-.27V843.89q-16.93-3.72-34.17-7.32L3158.87,728V202.64l110.78-74.9h.57v.3Zm31.86,467.75c-26.46-5.93-44.32-22.66-44.32-41.51V525.33q62.85,8,124,16.87l7.75,1.73v235.8l-71.94,88.8c-26-6.64-52.73-13-80-19.24V698.45l23.45,6.38c25.43,6.92,53.12-5.75,53.12-24.29V609.79C3379.75,604.5,3375,597.77,3367.65,595.79Zm286.86-100.67v80.15q-18.51-3.35-38-6.8V811.12l88.16,30.61V977.07c-61.39-27.11-130.89-52.44-207.44-75.7V127.74h207.44v80.71h-88.16v280Zm-1014.63,902c22-40,49-112.51,60-162l98.19-6.74c-23.08,57.56-67.12,132.83-95.17,164.67ZM3900.52,127.74c95.06,0,177.61,81.19,219.34,200.43a13.15,13.15,0,0,1,.75,4.39V601.94c-20.33,35.58-51,65.48-85.48,82.92l74.39,52.39a25.24,25.24,0,0,1,11.09,20.56v67.84l.16,59.78.15,66.61s-72.48,57-72.48,154.18,59.87,134.49,89.36,132.68a173.4,173.4,0,0,0,24.45-3.25c7.36-1.52,10.62-9.61,5.66-14.79-14.21-14.81-19.78-35.83-12.65-55.91,10.92-30.73,47.39-47.44,81.09-37,29.55,9.18,47.6,37.45,42,65.41a55,55,0,0,1-12.12,24.65c-36.57,60.48-57.52,53.71-99.29,52.56l-44.54.07h-148l-1-478.33-59.33-37.18V605.23c62.19-14.78,82.29-57.84,82.29-75.19l2.15-129.42c0-65-27.22-123.37-108.68-131.37V609.33h0v209.9h.34v266.84l-139.5-84.85V127.74h149.85ZM2351.89,843.84l-252.13,446.4H1969.52l194.92-322.3-153.73,129.51H1880.47L1856,968.12l-198.36,322.12H1527.36L1783,843.84h141.58l41.59,154.87L2137,843.84ZM2530.27,1214l-43.73,76.22H2183.35l256.11-446.4h303.19l-34.08,59.41h-169.5l-56.16,97.9h83.49l-36,62.8-10.25,13.42h-81L2360.8,1214Z"/></g></g></g></svg>